<svg xmlns="http://www.w3.org/2000/svg" width="120" height="25.196"><path data-name="Контур 12509" d="M22.886 0a12.6 12.6 0 1012.6 12.6A12.574 12.574 0 0022.886 0zm0 17.3a4.7 4.7 0 114.7-4.7 4.713 4.713 0 01-4.7 4.7z" fill="#fff"/><path data-name="Контур 12510" d="M10.286 3.668v18.339H5.741L0 3.668z" fill="#fff"/><path data-name="Контур 12511" d="M116.572 6.937l-2.791 6.857a.48.48 0 00-.08.319l-.08.159-.08-.159c0-.08-.08-.239-.08-.319l-2.791-6.857h-3.587l4.7 11.721-1.993 4.465h3.588l6.618-16.186z" fill="#fff"/><path data-name="Контур 12512" d="M90.099 7.575a4.55 4.55 0 00-2.392-.877 5.131 5.131 0 00-4.146 1.435V6.857h-3.269v11.721h3.269v-6.14a2.977 2.977 0 01.478-2.073 2.225 2.225 0 011.994-.957 2.426 2.426 0 012.073 1.037 3.624 3.624 0 01.318 1.435v6.7h3.269v-7.1a4.606 4.606 0 00-1.594-3.905z" fill="#fff"/><path data-name="Контур 12513" d="M74.073 7.017a6.646 6.646 0 00-4.943.239 5.517 5.517 0 00-2.551 2.312 5.927 5.927 0 00-.8 3.189 5.927 5.927 0 00.8 3.189 5.8 5.8 0 002.232 2.153 7.2 7.2 0 003.11.8 6.072 6.072 0 001.675-.239 10.649 10.649 0 001.435-.558 5.811 5.811 0 002.233-2.153 5.932 5.932 0 00.8-3.189 5.743 5.743 0 00-3.991-5.743zm.957 5.9a3.54 3.54 0 01-1.036 2.475 3.764 3.764 0 01-2.073.718 2.982 2.982 0 01-2.074-.718 3.544 3.544 0 01-1.037-2.472 3.053 3.053 0 011.276-2.791 3.27 3.27 0 011.754-.558 3.547 3.547 0 011.834.558 2.874 2.874 0 011.356 2.788z" fill="#fff"/><path data-name="Контур 12514" d="M62.033 7.575a4.551 4.551 0 00-2.392-.877h-.558a4.3 4.3 0 00-3.349 1.674l-.159.239h-.319a3.4 3.4 0 00-.877-.957 4.55 4.55 0 00-2.392-.877 4.2 4.2 0 00-3.747 1.435v-1.2h-3.27v11.726h3.269v-6.3a3.174 3.174 0 01.4-1.993 2.014 2.014 0 011.913-.957 2.243 2.243 0 011.914 1.037 2.746 2.746 0 01.319 1.595v6.538h3.269v-6.3a3.348 3.348 0 01.4-1.993 2.177 2.177 0 011.914-.957 2.109 2.109 0 011.834 1.037 2.447 2.447 0 01.319 1.2v6.937h3.269v-7.18a6.785 6.785 0 00-.239-1.834 4.187 4.187 0 00-1.518-1.993z" fill="#fff"/><path data-name="Контур 12515" d="M103.973 15.069a4.927 4.927 0 01-3.11 1.435 3.64 3.64 0 01-2.95-1.037 3.323 3.323 0 01-.718-1.276h9.01v-.08a7.819 7.819 0 00.16-1.355 8.272 8.272 0 00-.239-1.674 6.151 6.151 0 00-2.232-3.189 5.43 5.43 0 00-2.631-1.116 6.325 6.325 0 00-6.3 2.791 6.158 6.158 0 00-.877 3.508 5.853 5.853 0 001.515 3.907 6.9 6.9 0 004.7 1.993 8.649 8.649 0 005.821-2.312zm-5.581-4.944a3.062 3.062 0 011.754-.558 3.547 3.547 0 011.834.558 3.89 3.89 0 011.116 1.435h-5.741a2.075 2.075 0 011.037-1.434z" fill="#fff"/></svg>