<svg xmlns="http://www.w3.org/2000/svg" width="48.502" height="30"><g data-name="Сгруппировать 1716"><g data-name="Сгруппировать 1715"><path data-name="Прямоугольник 4027" fill="#f26522" d="M17.666 3.205h13.136v23.589H17.666z"/><path data-name="Контур 12540" d="M18.537 15.017A14.917 14.917 0 0124.251 3.24a14.983 14.983 0 100 23.554 14.968 14.968 0 01-5.714-11.777" fill="#e52423"/><path data-name="Контур 12541" d="M47.072 24.285v-.488h.209v-.1h-.488v.1h.209v.488zm.976 0v-.592h-.139l-.174.383-.174-.383h-.139v.592h.1v-.453l.174.383h.1l.174-.383v.453z" fill="#f99f1c"/><path data-name="Контур 12542" d="M33.519 0a14.869 14.869 0 00-9.268 3.206 14.993 14.993 0 010 23.554A14.984 14.984 0 1033.519 0" fill="#f99f1c"/></g></g></svg>