<svg xmlns="http://www.w3.org/2000/svg" width="50" height="30"><defs><linearGradient id="b" y1=".5" x2="1" y2=".5" gradientUnits="objectBoundingBox"><stop offset="0" stop-color="#00b4e6"/><stop offset=".3" stop-color="#00b4e6"/><stop offset=".609" stop-color="#04a2da"/><stop offset="1" stop-color="#088ccb"/></linearGradient><clipPath id="a"><path data-name="Прямоугольник 4035" transform="translate(1450 947)" fill="#fff" d="M0 0h50v30H0z"/></clipPath></defs><g data-name="Группа масок 174" transform="translate(-1450 -947)" clip-path="url(#a)"><rect data-name="Прямоугольник 4034" width="50" height="30" rx="3" transform="translate(1450 947)" fill="#fff"/><path d="M1466.236 956.62a1.985 1.985 0 00-1.88 1.41c-.363 1.301-1.381 4.882-1.409 4.98h-.282s-1.043-3.66-1.409-4.98a1.989 1.989 0 00-1.88-1.41h-3.383v10.76h3.383v-6.39h.282l1.974 6.39h2.349l1.974-6.385h.282v6.385h3.383v-10.76zm12.358 0a1.9 1.9 0 00-1.457 1.128l-2.4 5.262h-.282v-6.39h-3.379v10.76h3.2a1.951 1.951 0 001.5-1.128l2.349-5.262h.282v6.39h3.383v-10.76zm4.699 4.887v5.872h3.383v-3.429h3.665a3.66 3.66 0 003.453-2.443z" fill="#4db45e" fill-rule="evenodd"/><path d="M42.807 0h-7.523a5.4 5.4 0 003.9 4.229 5.406 5.406 0 001.414.188h5.8a3.611 3.611 0 00.075-.752A3.664 3.664 0 0042.807 0z" transform="translate(1447.535 956.62)" fill-rule="evenodd" fill="url(#b)"/></g></svg>