<svg xmlns="http://www.w3.org/2000/svg" width="128.703" height="30"><g data-name="Сгруппировать 1722"><path data-name="Контур 12552" d="M123.751 0H5.001a5.027 5.027 0 00-5 5v20a5.027 5.027 0 005 5h118.7a5.027 5.027 0 005-5V5a4.955 4.955 0 00-4.95-5z" fill="#fff"/><g data-name="Сгруппировать 1720"><g data-name="Сгруппировать 1718"><g data-name="Сгруппировать 1717"><path data-name="Контур 12553" d="M64.039 17.644h-.048l-2.115-7.356h-3.462v9.231h2.26l-.1-7.548h.048l2.311 7.548h3.317v-9.231h-2.307z"/><path data-name="Контур 12554" d="M20.001 10.288l-1.731 9.331h2.55l1.25-8.462h.05l1.25 8.462h2.5l-1.731-9.327z"/><path data-name="Контур 12555" d="M34.087 10.288l-1.154 7.163h-.048l-1.154-7.163h-3.8l-.19 9.331h2.308l.1-8.365h.048l1.535 8.365h2.356l1.587-8.365h.045l.05 8.365h2.356l-.24-9.327z"/><path data-name="Контур 12556" d="M12.501 12.692a.8.8 0 010-.481.784.784 0 01.865-.625.808.808 0 01.865.865v.577h2.308v-.673c0-2.019-1.827-2.356-3.125-2.356-1.635 0-3.029.529-3.269 2.067a3.635 3.635 0 000 1.25c.385 1.923 3.7 2.452 4.183 3.654a1.063 1.063 0 010 .673.842.842 0 01-.913.625.861.861 0 01-.962-.865v-.913h-2.452v.721c0 2.067 1.635 2.692 3.413 2.692 1.683 0 3.077-.577 3.317-2.115a5 5 0 000-1.538c-.432-1.875-3.99-2.452-4.23-3.558z"/><path data-name="Контур 12557" d="M42.837 12.74a.8.8 0 010-.481.784.784 0 01.865-.625.8.8 0 01.865.817v.577h2.308v-.625c0-2.019-1.827-2.308-3.125-2.308-1.635 0-2.981.529-3.221 2.067a3.635 3.635 0 000 1.25c.385 1.875 3.7 2.452 4.183 3.654a1.063 1.063 0 010 .673.842.842 0 01-.913.625.811.811 0 01-.913-.817v-.913h-2.5v.721c0 2.067 1.635 2.692 3.365 2.692 1.683 0 3.029-.577 3.269-2.115a5.069 5.069 0 000-1.538c-.385-2.019-3.894-2.596-4.183-3.654z"/><path data-name="Контур 12558" d="M53.414 17.211v.337a.956.956 0 01-1.827 0c0-.1-.048-.24 0-.337v-6.923h-2.355v7.308c.144 1.731 1.538 2.308 3.269 2.308s3.077-.577 3.269-2.308a2.682 2.682 0 000-.625v-6.683h-2.356z"/><path data-name="Контур 12559" d="M72.02 14.375v1.394h.962v1.683a1.023 1.023 0 01-1.923 0v-4.616a1.194 1.194 0 01.048-.433.834.834 0 01.913-.672c.721 0 .913.481.913.673a1.268 1.268 0 01.048.337v.529h2.356v-.913c-.192-1.731-1.635-2.308-3.269-2.308s-3.077.577-3.269 2.308c0 .144-.048.433-.048.625v3.937a3.449 3.449 0 00.048.625c.144 1.683 1.635 2.308 3.269 2.308s3.125-.625 3.269-2.308a3.191 3.191 0 00.048-.625v-2.5H72.02z"/></g><path data-name="Контур 12560" d="M118.703 14.759a5.762 5.762 0 00-.529-.577l-.577-.577-.577-.576-.577-.577-.577-.577-.577-.577-.577-.577-.288-.288a.862.862 0 00-.337-.24h-.1a.683.683 0 00-.288.1l-.577.577-.144.192a.3.3 0 00.1.385l.577.577.577.577.577.577.577.577.577.577.577.577-.144.144-.577.577-.577.577-.577.577-.577.577-.577.577-.288.288-.192.24v.288l.1.144h.048l.577.577a.56.56 0 00.337.1l.1-.048a2.091 2.091 0 00.337-.288 2.9 2.9 0 01.385-.385l.192-.192.577-.577.577-.577.577-.577.577-.577.577-.577.577-.577.144-.192v-.24z"/></g><g data-name="Сгруппировать 1719"><path data-name="Контур 12561" d="M86.78 10.048h-3.414v10h1.875v-2.837h1.539a3.582 3.582 0 100-7.163zm-.144 5.385h-1.443v-3.654h1.442a1.828 1.828 0 110 3.654z"/><path data-name="Контур 12562" d="M97.26 12.981a3.4 3.4 0 00-2.548-1.106 3.958 3.958 0 00-3.942 4.183 4 4 0 003.942 4.135 3.343 3.343 0 002.6-1.2v1.058h1.827v-8.032h-1.827v.962zm-2.308 5.481a2.433 2.433 0 01-2.4-2.5 2.392 2.392 0 012.4-2.452 2.477 2.477 0 010 4.952z"/><path data-name="Контур 12563" d="M106.01 12.019l-2.115 5.385-2.212-5.385h-1.971l3.269 7.6-1.683 4.087h1.875l4.76-11.687z"/></g></g></g></svg>