<svg xmlns="http://www.w3.org/2000/svg" width="778.137" height="451.308"><path data-name="Контур 7709" d="M466.417 32.546c-17.784-2.887 3.489-14.48-5.331-22.526-36.926 10.371-43.4 49.346-69.287 70.087-18.486-24.359-33.7-51.806-58.63-70.087-8.561-2.2-5.527 6.489-10.662 7.505-8.112-7.159-12.643-4.228-21.324-12.512-15.285 18.173-13.978 51.946-13.322 85.108-12.77-1.655-29.3 2.568-34.646 0 2.406-23.278 26.488-68.168 0-80.1-17.231 4.818-19.039 12.155-34.646 15.016-7.824 53.666-27.444 124.364-15.994 172.721h2.672c9.47 3.888 1.606-8.505 8-7.516a50.97 50.97 0 002.666 22.532c34.7-4.839 14.83-68.99 31.981-82.61 6.96 5.158-1.883 25.138 5.325 30.042 3.218.535 1.641 2.774 0 5.013 10.438.8 9.539-17.319 5.331-22.532 5.774.422 1.2-8.879 2.666-12.528 12.81 3.693 11.123-6.229 21.324-5-.023 24.44-2.879 48.562 2.666 72.591-3.61 10.939-.656 12.572-2.666 25.024 5.032.568 5.872-2.823 10.656-2.5a51.009 51.009 0 00-2.66-22.521c7.421 1.125-2.09-13.648 5.331-12.523 4.824 3.817-.513 17.173 10.662 15.021 16.154-44.057 8.82-108.943 23.978-147.68 10.282 14.545 19.321 30.248 18.659 55.061 8.129-.5 1.9-6.445 10.656-10.009 1 11.587 11.543 14.194 13.328 25.035-11.635 19.109-26.828 34.876-31.981 60.073 1.635 3.477 10.259.378 10.662 5.007-8.313 1.373-4.081 14.529-7.991 20.028 8.354 5.266 16.264 16.541 23.984 15.016-2.614 7.132 3.449 25.4 5.331 12.523h2.662c14.013-21.05 5.418-63.328 23.99-80.107 4.709 4.656 7.783-1.087 13.322-2.493-.967-54.489 34.788-77.951 53.288-120.159zM183.909 45.058c1.451-9.484 6.448-15.638 5.331-27.539-16.281-1.936-14.813 12.793-16 25.03-10.466 13.529-9.534 37.764-21.313 50.065 3.011 9.538-3.247 29.7-16 32.54-10.587-24.565-25.781-47.183-26.649-67.589-23.961 15.048-28.049 48.756-50.64 65.086-7.219-32.605-13.051-64.637-18.659-92.614C25.413 22.862 16.927 9.971 5.338 0 1.988 1.033-.108 3.234.001 7.516v5C5.372 88.081 36.967 155.46 50.635 207.763c18.745-7.429 14.07-36.85 31.986-45.052.023 6.646-1.013 14.291 2.666 17.514 7.432-11.366-2.821-39.359 7.991-47.561 12.044.368 12.361 11.76 15.994 20.033 9.384 8.965 12.487 16.708 13.328 37.542 8.687 10.2 19.522 18.374 21.319 35.044 6.949-25.186 13.046-51.157 23.984-72.586 2.406-4.369 5.964-9.646 10.662-5.012 1.531-4.4-3.224-14.7 2.666-15.021 7.893-27.62 3.529-59.116 13.328-80.1-.166-11.183-6.078-3.186-10.65-7.506z" fill="#df2929" fill-rule="evenodd"/><path data-name="Контур 7710" d="M589.372 75.251c16.793-10.122-17.894-12.474-15.988-25.03 8.325-2.19 14.076-6.808 21.319-10.014 7.514.449 3.328 11.9 13.322 10.014 3.484-5.91 1.129-17.3 5.331-22.532a113.3 113.3 0 0045.308-10.009C657.478.096 628.451-.699 613.356 2.659c-35.06-10.03-84.284 13.226-87.946 45.063-3.023 26.241 18.3 40.413 29.315 62.566h2.665c.011 2.509-2.159 2.985-2.665 5.007 12.786-3.109 37.922 13.464 37.312 22.531-.783 11.6-20.916 6.526-23.99 20.023-20.916-9.278-33.783-37.6-61.3-32.535-.334 28.9 13.155 39.6 13.328 62.577 28.993-5.515 15.63 42.019 26.644 45.058h2.666c11.872-5.542 3.051-30.507 13.328-37.547 5.3 4.169 3.385-.227 10.656 0 11.2-2.833 19.045-8.813 29.315-12.512 6.811 4.45-1.773 23.348 5.325 27.538.57-3.033 2.964-1.546 5.331 0 5.112-6.056 1.686-20.12 2.665-30.042 10.351-.3 8.25-12.28 18.653-12.512h2.666c16.9.368 2.349-33.184 10.668-40.056-22.12-15.091-29.598-43.937-58.62-52.567zM727.963.156c-33.846 2.439-45 46.983-63.961 70.088-1.566 8.987 3.1 12.112 5.331 17.524-25 25.246-7.127 67.736 2.66 95.123 5.964 1.081 1.082 12.334 2.665 17.519 8.417 1.233.985-12.42 10.663-10.014 35.867 14.556 50.075-4.169 63.962-27.539-.277-10.155 8.382-8.073 5.331 2.5 10.973.3.472-19.579 7.99-22.531C784.049 96.458 791.956-4.467 727.963.157zm-18.658 162.7c-23.455-17.681-17.347-72.829-5.332-97.621 2.407-8.435 5.965-.292 10.657-5.012.023-13.334 6.626-20.471 18.658-22.521 17.825 42.053 23.685 105.544-23.983 125.156z" fill="#fff" fill-rule="evenodd"/><path data-name="Контур 7711" d="M141.946 384.93c-2.982-4.709-.316-17.611 2.079-23.424 1.606-.438 4.093-.054 4.156-1.952 6.172-1.092 8.417 11.409 12.464 5.85-5.388-1.471 11.2-8.7 6.241-9.754v-1.957c13.967.108 23.973-3.51 24.94-15.616-4.024-2.731-6.16-7.229-8.313-11.717-10.737.33-23.46-1.206-31.18 1.958-1.768-6.889-7.225-32.319 4.156-33.189 1.134 3.417 5.924 5.5 5.291 8.105 6.58-8.532 20.7-9.982 30.046-15.908 1.514-5.326-4.128-3.931-4.163-7.808 8.325 1.3 8.354-5.169 8.325-11.712-23.437-5.591-53.633-3.731-66.518-13.664-12.268 42.025-16.1 74.63-14.548 113.22v1.947c-8.687 23.791 3.138 45.2 16.627 54.666-.633 4.553-4.439 8.408 2.078 9.755.006 1.957-1.681 2.325-2.078 3.9 8.382-1.228 5.642-12.918 6.235-21.472 10.409 1.319 16.085-1.806 24.939-1.957-.783 3.844 2.194 3.985 3.38 4.693 6.068-9.122 27.784-3.542 34.03-12.5-12.619-12.948-33.287-32.219-58.187-21.464zm19.839-81.7a18.471 18.471 0 00-1.14 1.66 3.318 3.318 0 001.14-1.662zm4.329 115.675a9 9 0 00-1.3 3.115c2.083-1.992 2.055-2.669 1.301-3.117zm-103.15-96.447c3.926-1.46 1.445-5.823 6.235-1.952-2.919-9.619-16.6-9.133-20.789-17.568 10.455.054 12.418-7.862 22.867-7.813.236 4.985.391 10.052 6.235 9.765 4.254-3.163-.1-14.4 4.162-17.568 13.437-1.038 24.215-4.585 35.325-7.808.49-23.878-37.842-11.306-54.036-19.525-10.426 5.818-18.815 13.561-33.253 15.616-31.354 23.181-7.03 53.244 4.156 74.175 12.585.714 22.579 13.312 33.253 21.477-10.95 6.067-10.346 11-24.94 13.664-12.66-8.933-20.565-22.343-39.494-25.376-9.079 22.413 8.054 33.665 6.235 50.757 7.6 1.325 12.286 5.375 16.627 9.765-3.132 10.474 4.254 40.3 4.157 23.424 3.927.433 4.583-2.206 8.313-1.952-3.6-5.818.673-9.906-2.078-13.669 1.986-17.006 27.64-11.782 39.488-19.52.253 5.618-1.14 12.771 2.078 15.621 10.57-5.7 7.133-24.537 18.711-29.285.852 2.455 2.677 3.99 6.235 3.909 9.344-11.4 1.347-26.9 6.235-35.141-17.529-11.513-22.1-35.197-45.722-40.999zm648.488 80.036c.063 6.721 6.92 11.826 14.548 15.627 39.937-13.401-14.859-50.038-14.548-15.629zm-6.235-124.932c9.425-1.557 16.085-5.71 29.1-3.9 19.056 12.766 5.325 42.695-6.235 54.661-3.65.476-4.738 3.358-4.151 7.808-5.521 12.766-8.67 29.318 0 41 2.429-.314 1.75-3.558 2.073-5.856-3.437-2.114-3.437-17.422 0-19.525 4.68-18.649 29.885-30.28 35.337-48.8 10.198-34.667-31.581-49.658-56.124-25.39zm-315.933 5.856c1.687-.368 2.078-1.957 4.162-1.952.4-24.446-43.368-7.424-51.964-23.424-10.7 14.437-36.143 3.834-43.651 19.52-15.636-5.337-45.32-18.622-70.663-5.856v-21.472c-13.443-.173-13.489 18.6-14.554 25.376-4.519 28.879-4.692 60.371-10.386 85.9.334 2.287 3.788 1.649 6.235 1.952-6.373 7.683-11.941 24.71-2.078 31.232h2.078c.852-2.449 2.688-3.99 6.235-3.9-1.4 9.771 1.923 15.107 2.084 23.424 12.09-9.695 8.048-32.833 8.313-46.848 13.863 1.968 17.4 30.486 33.259 37.093 4.2 12.972 5.7 28.48 8.313 42.944 4.755-3.342.754-14.9 2.078-21.472 7.4 4.115 10.351 12.409 14.548 19.525 8.3-10.879 10.645 1.011 22.861 5.856-18.2-32.805-31.037-66.07-54.042-97.615 5.878-6.2 14.715-9.6 20.783-15.616 5.585-1.347 4.012 4.034 6.235 5.856 1.059-17.876 18.158-20.677 20.783-37.093-1.059-10.755 3.414-16.313 14.548-15.616 5.2-4.915 8.164 2.239 14.542 1.946-4.007 37.012-3.949 64.994-4.151 99.567-9.586-2.5-3.443 9.776-14.548 5.861-3.443 1.968-2.263 8.284-4.163 11.706.461 6.072 10.34 3.293 16.632 3.9 3.074.362 1.906 4.72 2.073 7.808.438 2.363 2.308 1.206 4.151 0-2.568-5.64-1.053-8.9 6.247-9.749v5.85c6.719 2.412 1.583-6.321 8.307-3.909-.1 3.363 1.6 5.007 4.157 5.861 2.884-2.5 1.272-9.219 4.156-11.717h10.392c9.787-3.682-1.5-11.717-10.392-9.755.443-2.2 2.309-3.044 4.162-3.909-.564-4.023-9.206-.465-8.313-5.856-3.074-17.92 2.556-37.05 4.157-54.656 1.4-15.394-5.464-34.687 8.313-42.949 8.872.773 1.986 16.357 4.157 23.424h2.078c3.425-9.8.961-25.127 8.313-31.232 10.557 3.037 10.632-7.507 14.552-.007zm-157.969 54.661c2.291-9.949-5.665-17.362 2.084-21.472 5.308-.216 4.122-6.543 4.151-11.717-1.457-8.527 3.541-10.993 2.084-19.52 5.872 1.611 5.383-2.747 10.392-1.952 2.861 2.515 2.061 8.479 2.078 13.659 6.247-.638 2.441-10.717 8.319-11.707 7.841-.865 9.753 3.844 14.548 5.856.747 29.98-24.889 35.182-43.657 46.851zm224.49-70.279c-40.156-11.863-53.455 27.03-68.59 50.752-.334 6.17-.08 11.782 4.156 13.669-21.445 19.7-3.782 53.79 2.078 76.133 4.5-.33.938 6.927 2.072 9.765 2.741-2.147 9.378-10.506 14.554-3.909 27.657 9.83 34.232-8.435 43.65-29.28 3.656.47 4.732 3.358 4.156 7.808 12.854-38.516 34.53-96.826-2.076-124.938zm-8.325 93.706c-3.828 13.967-10.041 25.7-24.94 29.28-21.128-16.211-12.487-55.991-4.156-78.09.512-2.444 4.134-1.968 4.156 0 2.263-.486 1.411-3.877 4.157-3.9.173-9.592 5.682-14.183 14.554-15.621 5.331 15.578 10.38 31.313 10.392 46.858 1.907 5.538-2.325 13.881-4.161 21.473zm141.337-97.61c-8.607-.276-6.316 9.689-8.307 15.621-16.379-7.738-14.352 17.395-20.789 25.376 1.814 12.82-5.889 76.684-41.566 72.229-9-16.129 16.126-52.979-4.162-66.373 6.586-11 5.924-38.342 4.162-50.757-6.327 1.217-10.628 4.342-10.391 11.717-3.725.249-4.387-2.39-8.313-1.952-8.969 15.01-6.586 40.667-12.47 58.565-1.319 6.575 2.677 18.135-2.079 21.472 6.782 18.444-4.1 28.344 4.157 46.853 5.953.27-1.8 13.4 4.156 13.669 13.391-2.823 14.013 6.353 20.778 9.765 9.919-2.45 20.236-10.339 24.945-11.717 4.836 1.968 6.7 6.721 6.235 13.664 7.363-5.44 8.981-16.286 12.475-25.376 6.523 2.168 5.487.919 10.392-1.952-5.406-6.991 5.607-12.047 6.235-19.52v-13.664h2.078c-.464-30.863 15.316-63.112 12.466-97.62zm3.345 27.42c-3.529 6.791-4.479 14.345-4.681 19.255 6.091 14.275 17.219 23.829 22.119 39.218 17.709 5.045 45.643 22.6 12.47 35.141-15.44-4.023-24.894-23-39.206-23.5l-3.6 6.732a49.742 49.742 0 00-2.464 10.787c3.3 12.842 7.962 17.8 7.864 31.367 19.891-.243 19.419 28.312 20.777 39.04 14.191-1.633-1.566-31.41 12.47-33.184 15.325 2.028 19.177-6.716 31.181-7.808-3.575 9.165 5.463 29 4.162 17.568 1.267-.114 2.458-.287 2.079-1.947 7.991-7.1 6.793-36.033 20.789-25.376 9.01-10.349 7.289-22.278 6.229-39.045-19.994-6.6-18.532-33.351-43.651-35.141.029-3.882 5.677-2.487 4.163-7.808-7.11-3.742-14.767-6.954-18.7-13.664 10.294.552 12.4-6.575 20.783-7.813-.593 5.11.754 8.4 6.229 7.813 1.94-5.991 6.477-9.538 8.319-15.616 9.643-3.3 23.8-2.379 31.175-7.808v-9.766c-38.296-16.593-80.059-5.022-98.505 21.555z" fill="#df2929" fill-rule="evenodd"/></svg>