<svg xmlns="http://www.w3.org/2000/svg" width="44.861" height="28"><g fill="#fff"><path d="M41.664 0h.473c.128 0 .256 0 .385.006a5 5 0 01.731.062 1.974 1.974 0 01.562.184 1.815 1.815 0 01.794.795 1.947 1.947 0 01.182.561 4.973 4.973 0 01.062.73c0 .127.005.255.006.385v22.553c0 .127 0 .255-.006.382a4.966 4.966 0 01-.062.733 1.941 1.941 0 01-.182.559 1.815 1.815 0 01-.8.795 1.958 1.958 0 01-.558.183 5.085 5.085 0 01-.729.062c-.129 0-.258 0-.39.005H2.721c-.129 0-.258 0-.383-.005a5.094 5.094 0 01-.731-.062 1.964 1.964 0 01-.562-.184 1.815 1.815 0 01-.793-.794 1.963 1.963 0 01-.183-.562 4.947 4.947 0 01-.062-.73c0-.128 0-.256-.006-.384V2.722c0-.128 0-.256.006-.384a4.951 4.951 0 01.063-.732 1.96 1.96 0 01.183-.561 1.816 1.816 0 01.794-.793 1.97 1.97 0 01.561-.183A4.993 4.993 0 012.34.007C2.467 0 2.595 0 2.722 0h38.942" opacity=".05"/><g data-name="Сгруппировать 1714" opacity=".2"><g data-name="Сгруппировать 1712"><path data-name="Контур 12528" d="M11.793 9.09a2.615 2.615 0 00.6-1.864 2.593 2.593 0 00-1.719.89 2.448 2.448 0 00-.616 1.792 2.164 2.164 0 001.734-.817"/><path data-name="Контур 12529" d="M12.387 10.036c-.958-.057-1.772.543-2.229.543s-1.158-.515-1.915-.5a2.824 2.824 0 00-2.4 1.458c-1.029 1.773-.272 4.4.729 5.848.486.715 1.071 1.5 1.843 1.473.729-.029 1.015-.472 1.9-.472s1.143.472 1.915.458c.8-.014 1.3-.715 1.786-1.43a6.347 6.347 0 00.8-1.644 2.6 2.6 0 01-1.557-2.359 2.647 2.647 0 011.257-2.216 2.738 2.738 0 00-2.129-1.158"/></g><g data-name="Сгруппировать 1713"><path data-name="Контур 12530" d="M20.724 8.044a3.365 3.365 0 013.53 3.523 3.4 3.4 0 01-3.582 3.533h-2.3v3.664H16.7V8.044zm-2.356 5.664h1.91a2.008 2.008 0 002.274-2.133 2 2 0 00-2.267-2.126h-1.917z"/><path data-name="Контур 12531" d="M24.69 16.547c0-1.368 1.048-2.208 2.906-2.312l2.141-.126v-.6c0-.87-.587-1.39-1.568-1.39a1.5 1.5 0 00-1.65 1.145H25c.089-1.412 1.293-2.453 3.226-2.453 1.9 0 3.107 1 3.107 2.572v5.389H29.8v-1.289h-.037a2.794 2.794 0 01-2.468 1.42 2.37 2.37 0 01-2.605-2.356zm5.047-.706v-.617l-1.925.119c-.959.067-1.5.491-1.5 1.16s.565 1.13 1.427 1.13a1.874 1.874 0 001.997-1.792z"/><path data-name="Контур 12532" d="M32.787 21.646v-1.3a2.971 2.971 0 00.52.03A1.3 1.3 0 0034.7 19.26c0-.015.141-.476.141-.483l-2.827-7.827h1.739l1.977 6.363h.03l1.977-6.363h1.695L36.5 19.178c-.669 1.9-1.442 2.5-3.062 2.5a6.2 6.2 0 01-.651-.032z"/></g></g></g></svg>