<svg xmlns="http://www.w3.org/2000/svg" width="50" height="26.596"><path d="M36.702-.003h-23.4a13.337 13.337 0 00-13.3 13.3 13.337 13.337 0 0013.3 13.3h23.4a13.337 13.337 0 0013.3-13.3 13.337 13.337 0 00-13.3-13.3z" fill="#fff" opacity=".05"/><path d="M23.843 14.242v4.023h-1.277V8.331h3.384a3.052 3.052 0 012.188.858 2.864 2.864 0 010 4.2 3.047 3.047 0 01-2.187.844h-2.108zm0-4.687v3.464h2.134a1.7 1.7 0 001.263-.512 1.674 1.674 0 00.512-1.217 1.771 1.771 0 00-1.775-1.729h-2.134zm8.55 1.689a3.158 3.158 0 012.234.758 2.69 2.69 0 01.818 2.074v4.189h-1.217v-.944h-.053a2.428 2.428 0 01-2.108 1.164 2.736 2.736 0 01-1.882-.665 2.123 2.123 0 01-.758-1.662 2.008 2.008 0 01.8-1.676 3.347 3.347 0 012.123-.625 3.719 3.719 0 011.868.419v-.293a1.449 1.449 0 00-.525-1.13 1.8 1.8 0 00-1.237-.465 1.94 1.94 0 00-1.689.9l-1.117-.701a3.118 3.118 0 012.743-1.343zm-1.649 4.933a1.007 1.007 0 00.426.831 1.563 1.563 0 00.991.332 2.025 2.025 0 001.436-.6 1.878 1.878 0 00.632-1.4 2.63 2.63 0 00-1.662-.472 2.182 2.182 0 00-1.3.372 1.135 1.135 0 00-.523.937zm11.643-4.714l-4.255 9.787h-1.317l1.582-3.424-2.806-6.363h1.39l2.021 4.88h.027l1.968-4.88z" opacity=".2" fill="#fff"/><path d="M18.765 13.431a6.719 6.719 0 00-.106-1.2h-5.351v2.194h3.082a2.64 2.64 0 01-1.14 1.772v1.424h1.83a5.576 5.576 0 001.685-4.19z" fill="#4285f4"/><path d="M15.25 16.197a3.451 3.451 0 01-5.136-1.805H8.218v1.468a5.7 5.7 0 005.09 3.137 5.433 5.433 0 003.772-1.377z" fill="#34a853"/><path d="M9.933 13.297a3.435 3.435 0 01.178-1.09v-1.463H8.218a5.7 5.7 0 000 5.116l1.892-1.468a3.435 3.435 0 01-.177-1.095z" fill="#fabb05"/><path d="M13.309 9.861a3.1 3.1 0 012.186.854l1.626-1.624a5.472 5.472 0 00-3.811-1.484 5.7 5.7 0 00-5.09 3.137l1.892 1.468a3.408 3.408 0 013.197-2.351z" fill="#e94235"/></svg>