<svg xmlns="http://www.w3.org/2000/svg" width="140" height="48"><defs><clipPath id="a"><path data-name="Прямоугольник 3195" transform="translate(25 25)" fill="#fff" d="M0 0h140v48H0z"/></clipPath></defs><g data-name="Группа масок 121" transform="translate(-25 -25)" clip-path="url(#a)"><g data-name="credit-card (2)" transform="translate(61.608 15.609)"><path data-name="Контур 12516" d="M61.565 9.391H5.217A5.223 5.223 0 000 14.609v37.565a5.223 5.223 0 005.217 5.217h56.348a5.223 5.223 0 005.217-5.217V14.609a5.223 5.223 0 00-5.217-5.218z" fill="#fff" opacity=".1"/><path data-name="Контур 12517" d="M22.957 30.261H10.435a2.087 2.087 0 01-2.087-2.087v-8.348a2.087 2.087 0 012.087-2.087h12.522a2.087 2.087 0 012.087 2.087v8.348a2.087 2.087 0 01-2.087 2.087z" fill="#fff" opacity=".15"/><path data-name="Контур 12518" d="M15.652 43.826h-5.217a2.087 2.087 0 01-2.087-2.087V40.7a2.087 2.087 0 012.087-2.087h5.217a2.087 2.087 0 012.087 2.087v1.043a2.087 2.087 0 01-2.087 2.083z" fill="#fff" opacity=".1"/><path data-name="Контур 12519" d="M29.217 43.826H24a2.087 2.087 0 01-2.087-2.087V40.7A2.087 2.087 0 0124 38.609h5.217A2.087 2.087 0 0131.3 40.7v1.043a2.087 2.087 0 01-2.083 2.083z" fill="#fff" opacity=".1"/><path data-name="Контур 12520" d="M42.783 43.826h-5.218a2.087 2.087 0 01-2.087-2.087V40.7a2.087 2.087 0 012.087-2.087h5.217A2.087 2.087 0 0144.87 40.7v1.043a2.087 2.087 0 01-2.087 2.083z" fill="#fff" opacity=".1"/><path data-name="Контур 12521" d="M56.348 43.826H51.13a2.087 2.087 0 01-2.087-2.087V40.7a2.087 2.087 0 012.087-2.087h5.217a2.087 2.087 0 012.088 2.087v1.043a2.087 2.087 0 01-2.087 2.083z" fill="#fff" opacity=".1"/><path data-name="Контур 12522" d="M30.261 50.087H9.391a1.043 1.043 0 110-2.087h20.87a1.043 1.043 0 110 2.087z" fill="#fff" opacity=".15"/><path data-name="Контур 12523" d="M43.826 50.087h-9.391a1.043 1.043 0 110-2.087h9.391a1.043 1.043 0 010 2.087z" fill="#fff" opacity=".15"/><path data-name="Контур 12524" d="M48 28.174a6.261 6.261 0 110-8.349" fill="#fff" opacity=".1"/><path data-name="Контур 12525" d="M25.043 25.043H14.609v-2.086h10.434V20.87H14.609v-3.13h-2.087v12.521h2.087V27.13h10.434z" opacity=".2"/><circle data-name="Эллипс 70" cx="6.261" cy="6.261" r="6.261" transform="translate(45.913 17.739)" fill="#6f7173"/></g></g></svg>