<svg xmlns="http://www.w3.org/2000/svg" width="120" height="28"><defs><clipPath id="a"><path data-name="Прямоугольник 3195" transform="translate(20 30.5)" fill="#fff" d="M0 0h120v28H0z"/></clipPath></defs><g data-name="Группа масок 185" transform="translate(-20 -30.5)" clip-path="url(#a)"><path d="M92.315 30.5H67.684a14.039 14.039 0 00-14 14 14.039 14.039 0 0014 14h24.631a14.039 14.039 0 0014-14 14.039 14.039 0 00-14-14z" fill="#fff" opacity=".05"/><path d="M78.779 45.497v4.235h-1.345v-10.46h3.562a3.212 3.212 0 012.3.9 3.015 3.015 0 010 4.421 3.208 3.208 0 01-2.3.888h-2.215zm0-4.934v3.642h2.246a1.79 1.79 0 001.329-.539 1.762 1.762 0 00.539-1.283 1.867 1.867 0 00-1.867-1.82h-2.247zm9 1.775a3.325 3.325 0 012.351.8 2.832 2.832 0 01.861 2.185v4.409h-1.282v-.992h-.058a2.556 2.556 0 01-2.217 1.224 2.88 2.88 0 01-1.983-.7 2.235 2.235 0 01-.8-1.75 2.113 2.113 0 01.842-1.764 3.523 3.523 0 012.241-.662 3.915 3.915 0 011.966.441v-.309a1.525 1.525 0 00-.552-1.189 1.9 1.9 0 00-1.3-.489 2.042 2.042 0 00-1.779.949l-1.175-.738a3.282 3.282 0 012.885-1.415zm-1.736 5.192a1.06 1.06 0 00.449.875 1.645 1.645 0 001.043.35 2.131 2.131 0 001.511-.633 1.977 1.977 0 00.665-1.474 2.768 2.768 0 00-1.75-.5 2.3 2.3 0 00-1.369.4 1.2 1.2 0 00-.551.986zm12.256-4.96l-4.479 10.3h-1.386l1.665-3.6-2.953-6.7h1.463l2.125 5.135h.029l2.071-5.135z" opacity=".2" fill="#fff"/><path d="M73.434 44.641a7.072 7.072 0 00-.111-1.263h-5.63v2.309h3.241a2.779 2.779 0 01-1.2 1.865v1.5h1.925a5.87 5.87 0 001.775-4.411z" fill="#4285f4"/><path d="M69.734 47.552a3.632 3.632 0 01-5.406-1.9h-2v1.545a6 6 0 005.36 3.3 5.717 5.717 0 003.967-1.45z" fill="#34a853"/><path d="M64.134 44.5a3.617 3.617 0 01.187-1.147v-1.54h-1.987a6 6 0 000 5.385l1.991-1.545a3.617 3.617 0 01-.186-1.153z" fill="#fabb05"/><path d="M67.692 40.883a3.263 3.263 0 012.3.9l1.71-1.71a5.76 5.76 0 00-4.011-1.562 6 6 0 00-5.357 3.3l1.99 1.547a3.587 3.587 0 013.368-2.475z" fill="#e94235"/></g></svg>