<svg xmlns="http://www.w3.org/2000/svg" width="120" height="28"><defs><clipPath id="a"><path data-name="Прямоугольник 3195" transform="translate(20 30.25)" fill="#fff" d="M0 0h120v28H0z"/></clipPath></defs><g data-name="Группа масок 200" transform="translate(-20 -30.25)" clip-path="url(#a)"><g fill="#fff"><path data-name="Контур 12623" d="M79.376 46.123h.972v2.19h.706l1.267-2.19h1.068l-1.52 2.57v.018l1.611 2.805h-1.1l-1.3-2.353h-.706v2.353h-.977v-5.393zm6.3 1.43a2.049 2.049 0 012.136 2.027 2.12 2.12 0 01-4.235 0 2 2 0 012.097-2.027zm0 3.222a1.214 1.214 0 000-2.425 1.215 1.215 0 000 2.425zm2.9-3.131h.923v3.041h1.213v-3.042h.923v3.041h1.213v-3.041h.923v3.873h-5.165v-3.873zm7.928-.09a1.682 1.682 0 011.719 1.828 2.7 2.7 0 01-.036.38H95.52a1.1 1.1 0 001.158 1.032 1.888 1.888 0 001.1-.416l.38.688a2.48 2.48 0 01-1.557.561A1.982 1.982 0 0194.52 49.6a1.92 1.92 0 011.978-2.047zm.742 1.538a.761.761 0 00-.778-.814.938.938 0 00-.941.814zm1.43 1.611c.471-.072.814-.471.814-1.846v-1.214h2.818v3.873h-.96v-3.094h-.941v.434c0 1.683-.452 2.661-1.738 2.7zm6.389-3.149a1.682 1.682 0 011.719 1.828 2.7 2.7 0 01-.036.38h-2.667a1.1 1.1 0 001.158 1.032 1.888 1.888 0 001.1-.416l.38.688a2.48 2.48 0 01-1.557.561 1.982 1.982 0 01-2.081-2.027 1.92 1.92 0 011.978-2.047zm.742 1.538a.761.761 0 00-.778-.814.938.938 0 00-.941.814zm1.774-1.448h.959v1.484h.471l.941-1.484h1.068l-1.237 1.845v.018l1.376 2.009h-1.123l-1.014-1.575h-.507v1.575h-.959v-3.873z" opacity=".2"/><path data-name="Контур 12624" d="M92.896 34.377v9.14a.247.247 0 01-.253.253h-1.865a.247.247 0 01-.253-.253v-9.14a.247.247 0 01.253-.253h1.864a.247.247 0 01.254.253zm14.552-.254h-2.082a.25.25 0 00-.235.181l-1.647 5.412-1.81-5.412a.234.234 0 00-.235-.163h-1.466a.258.258 0 00-.235.163l-1.81 5.412-1.647-5.412a.25.25 0 00-.235-.181h-2.082a.227.227 0 00-.2.109.239.239 0 00-.036.217l3.077 9.158a.234.234 0 00.235.163h1.665a.258.258 0 00.235-.163l1.793-5.338 1.792 5.339a.234.234 0 00.235.163h1.665a.258.258 0 00.235-.163l3.077-9.158a.231.231 0 00-.036-.217.431.431 0 00-.253-.11zm3.149 0h-1.864a.247.247 0 00-.253.253v9.14a.247.247 0 00.253.253h1.864a.247.247 0 00.253-.253v-9.14a.272.272 0 00-.253-.253zm-21.158 9.321a.185.185 0 01-.145.308h-2.28a.292.292 0 01-.235-.109l-.38-.471a4.964 4.964 0 111.52-1.5zm-4.525-2.027l-1-1.213a.2.2 0 01.145-.326h2.1a2.643 2.643 0 10-2.5 1.846 2.505 2.505 0 001.255-.307zM70.38 47.879a.4.4 0 00-.525.145 1.327 1.327 0 00.235 1.176c.271.434.525.652.706.652s.344-.217.271-.778c-.035-.305-.219-1.014-.687-1.195zm-2.751 2.045a.7.7 0 00-.579.253 1.188 1.188 0 00.326 1.557 1.292 1.292 0 00.851.308.953.953 0 00.742-.326c.29-.4.127-.941-.434-1.412a1.411 1.411 0 00-.906-.38zm-6.335 5.231a12.433 12.433 0 1110.7-6.063.082.082 0 01-.145-.036 5.784 5.784 0 00-5.014-5.249c-.235-.036-.271-.181.036-.217a12.374 12.374 0 012.624.054 8.236 8.236 0 10-8.181 7.276h.38a11.109 11.109 0 01-.163-2.226c.018-.507.127-.579.344-.181a8.59 8.59 0 005.953 4.456 12.118 12.118 0 018.02 4.81c.253.308-.127.633-.416.38-2.86-2.534-5.466-3.366-7.837-3.366-2.663.018-4.473.362-6.301.362z" opacity=".25"/></g></g></svg>