<svg xmlns="http://www.w3.org/2000/svg" width="120" height="28"><defs><clipPath id="a"><path data-name="Прямоугольник 3195" transform="translate(20 30)" fill="#fff" d="M0 0h120v28H0z"/></clipPath></defs><g data-name="Группа масок 183" transform="translate(-20 -30)" clip-path="url(#a)"><g fill="#fff"><path data-name="Контур 12585" d="M135.382 30.014H24.662A4.687 4.687 0 0020 34.676v18.648a4.687 4.687 0 004.662 4.662h110.676A4.687 4.687 0 00140 53.324V34.676a4.62 4.62 0 00-4.618-4.662z" opacity=".05"/><g data-name="Сгруппировать 1733" opacity=".25"><g data-name="Сгруппировать 1731"><g data-name="Сгруппировать 1730"><path data-name="Контур 12586" d="M79.708 46.465h-.045l-1.972-6.858h-3.227v8.607h2.107l-.09-7.038h.04l2.152 7.038h3.093v-8.607h-2.145z"/><path data-name="Контур 12587" d="M38.648 39.607l-1.614 8.7h2.376l1.165-7.889h.046l1.165 7.889h2.335l-1.614-8.7z"/><path data-name="Контур 12588" d="M51.782 39.607l-1.076 6.679h-.045l-1.076-6.679h-3.541l-.179 8.7h2.156l.09-7.8h.045l1.434 7.8h2.2l1.479-7.8h.045l.045 7.8h2.2l-.224-8.7z"/><path data-name="Контур 12589" d="M31.655 41.848a.748.748 0 010-.448.731.731 0 01.807-.583.753.753 0 01.807.807v.538h2.152v-.627c0-1.883-1.7-2.2-2.914-2.2-1.524 0-2.824.493-3.048 1.928a3.389 3.389 0 000 1.165c.359 1.793 3.452 2.286 3.9 3.407a.991.991 0 010 .628.785.785 0 01-.852.583.8.8 0 01-.9-.807v-.852h-2.286v.672c0 1.928 1.524 2.51 3.183 2.51 1.569 0 2.869-.538 3.093-1.972a4.657 4.657 0 000-1.434c-.401-1.746-3.718-2.284-3.942-3.315z"/><path data-name="Контур 12590" d="M59.94 41.893a.748.748 0 010-.448.731.731 0 01.807-.583.742.742 0 01.807.762v.538h2.152v-.583c0-1.883-1.7-2.152-2.914-2.152-1.524 0-2.779.493-3 1.928a3.389 3.389 0 000 1.165c.359 1.748 3.452 2.286 3.9 3.407a.991.991 0 010 .628.785.785 0 01-.852.583.757.757 0 01-.852-.762v-.852h-2.334v.672c0 1.928 1.524 2.51 3.138 2.51 1.569 0 2.824-.538 3.048-1.972a4.726 4.726 0 000-1.434c-.359-1.883-3.631-2.421-3.9-3.407z"/><path data-name="Контур 12591" d="M69.802 46.062v.314a.892.892 0 01-1.7 0c0-.09-.045-.224 0-.314v-6.455h-2.2v6.814c.134 1.614 1.434 2.152 3.048 2.152s2.869-.538 3.048-2.152a2.5 2.5 0 000-.583v-6.231h-2.2z"/><path data-name="Контур 12592" d="M87.15 43.417v1.3h.9v1.569a.954.954 0 01-1.793 0v-4.3a1.113 1.113 0 01.045-.4.778.778 0 01.852-.628c.672 0 .852.448.852.628a1.183 1.183 0 01.045.314v.493h2.2v-.858c-.179-1.614-1.524-2.152-3.048-2.152s-2.869.538-3.048 2.152c0 .134-.045.4-.045.583v3.676a3.215 3.215 0 00.045.583c.134 1.569 1.524 2.152 3.048 2.152s2.914-.583 3.048-2.152a2.975 2.975 0 00.045-.583v-2.332H87.15z"/></g><path data-name="Контур 12593" d="M130.676 43.776a5.372 5.372 0 00-.493-.538l-.538-.538-.538-.538-.538-.538-.538-.538-.538-.538-.538-.538-.269-.269a.8.8 0 00-.314-.224h-.09a.637.637 0 00-.269.09l-.538.538-.134.179a.281.281 0 00.09.359l.538.538.538.538.538.538.538.538.538.538.538.538-.134.134-.538.538-.538.538-.538.538-.538.538-.538.538-.269.269-.179.224v.269l.09.134h.045l.538.538a.522.522 0 00.314.09l.09-.045a1.95 1.95 0 00.314-.269 2.7 2.7 0 01.359-.359l.179-.179.538-.538.538-.538.538-.538.538-.538.538-.538.538-.538.134-.179v-.224z"/></g><g data-name="Сгруппировать 1732"><path data-name="Контур 12594" d="M100.911 39.383h-3.182v9.324h1.748v-2.645h1.434a3.34 3.34 0 100-6.679zm-.134 5.021h-1.345v-3.407h1.345a1.704 1.704 0 110 3.407z"/><path data-name="Контур 12595" d="M110.683 42.117a3.171 3.171 0 00-2.376-1.031 3.691 3.691 0 00-3.676 3.9 3.731 3.731 0 003.676 3.855 3.117 3.117 0 002.421-1.121v.986h1.7v-7.485h-1.7v.9zm-2.152 5.11a2.269 2.269 0 01-2.241-2.331 2.23 2.23 0 012.241-2.286 2.31 2.31 0 010 4.617z"/><path data-name="Контур 12596" d="M118.842 41.221l-1.972 5.021-2.062-5.021h-1.839l3.052 7.082-1.569 3.81h1.748l4.438-10.893z"/></g></g></g></g></svg>