<svg data-name="Донат сайт. Пополнить счет. Спб. офф" xmlns="http://www.w3.org/2000/svg" width="160" height="88.5" transform="scale(1.2)"><defs><clipPath id="a"><path data-name="Прямоугольник 4065" transform="translate(25 25)" fill="#fff" d="M0 0h140v48H0z"/></clipPath></defs><g data-name="Группа масок 203" transform="translate(-15 -5)" clip-path="url(#a)"><g fill="#fff"><path d="M48.341 35.448l5.813 10.39v6.338l-5.806 10.369z" opacity=".1"/><path d="M70.66 42.057l5.447-3.338 11.147-.01L70.66 48.874z" opacity=".4"/><path d="M70.629 35.387l.031 13.756-5.826-3.58V25l5.8 10.387z" opacity=".3"/><path d="M87.254 38.708l-11.148.01-5.477-3.332L64.833 25l22.42 13.708z" opacity=".35"/><path d="M70.66 62.6v-6.671l-5.826-3.512L64.841 73z" opacity=".25"/><path d="M76.093 59.295l-21.94-13.457-5.812-10.39L87.23 59.281l-11.138.014z" opacity=".15"/><path d="M64.841 73l5.822-10.4 5.433-3.308 11.137-.014z" opacity=".2"/><path d="M48.348 62.545l16.533-10.128-5.558-3.41-5.169 3.169z" opacity=".05"/><g data-name="Сгруппировать 1754" opacity=".25"><path d="M94.189 58.335a1.2 1.2 0 01-.5.37 1.713 1.713 0 01-.653.126 1.852 1.852 0 01-.653-.11 1.449 1.449 0 01-.5-.313 1.416 1.416 0 01-.33-.49 1.669 1.669 0 01-.118-.636 1.583 1.583 0 01.114-.606 1.432 1.432 0 01.316-.49 1.552 1.552 0 01.476-.327 1.518 1.518 0 01.609-.123 2.341 2.341 0 01.663.09 1.205 1.205 0 01.515.3l-.246.416a1.154 1.154 0 00-.411-.24 1.445 1.445 0 00-.448-.07 1.026 1.026 0 00-.387.076 1.036 1.036 0 00-.33.213.975.975 0 00-.226.333 1.144 1.144 0 000 .868 1.025 1.025 0 00.232.333.95.95 0 00.343.21 1.16 1.16 0 00.418.073 1.093 1.093 0 00.488-.107 1.22 1.22 0 00.37-.276zm.693.426V55.8h.532v2.207l1.727-2.207h.532v2.962h-.532v-2.208l-1.73 2.207h-.532zm6.318-.426a1.2 1.2 0 01-.5.37 1.716 1.716 0 01-.653.126 1.851 1.851 0 01-.653-.11 1.451 1.451 0 01-.505-.313 1.416 1.416 0 01-.33-.49 1.669 1.669 0 01-.118-.636 1.583 1.583 0 01.114-.606 1.443 1.443 0 01.316-.49 1.552 1.552 0 01.478-.329 1.455 1.455 0 01.609-.123 2.341 2.341 0 01.663.09 1.209 1.209 0 01.515.3l-.246.416a1.15 1.15 0 00-.41-.24 1.446 1.446 0 00-.448-.07 1.041 1.041 0 00-.717.29 1.014 1.014 0 00-.226.333 1.142 1.142 0 000 .868 1.018 1.018 0 00.232.333.952.952 0 00.344.21 1.239 1.239 0 00.417.073 1.1 1.1 0 00.488-.107 1.22 1.22 0 00.37-.276zm.273-2.536h2.73v.526h-1.1v2.436h-.532v-2.436h-1.1V55.8z"/><path d="M106.687 58.731a1.385 1.385 0 00.522-.293l-.162-.413a1.246 1.246 0 01-.387.22 1.5 1.5 0 01-.532.09 1.113 1.113 0 01-.727-.233.9.9 0 01-.32-.656h2.3a1.6 1.6 0 00.034-.356 1.34 1.34 0 00-.111-.552 1.278 1.278 0 00-.74-.706 1.477 1.477 0 00-.542-.1 1.7 1.7 0 00-.66.123 1.455 1.455 0 00-.482.33 1.391 1.391 0 00-.3.489 1.709 1.709 0 00-.1.606 1.743 1.743 0 00.114.636 1.376 1.376 0 00.828.8 1.909 1.909 0 00.663.11 2.016 2.016 0 00.6-.1zm-1.346-2.28a.941.941 0 01.66-.223.882.882 0 01.62.21.811.811 0 01.246.579h-1.82a.9.9 0 01.294-.566z" fill-rule="evenodd"/><path d="M108.141 55.8h.485l1.151 1.468 1.09-1.468h.474v2.962h-.532V56.6l-1.037 1.374h-.02l-1.079-1.374v2.16h-.532z"/><path d="M112.785 55.809a1.675 1.675 0 00-.458.2l.141.42a3.354 3.354 0 01.364-.153 1.389 1.389 0 01.461-.064.783.783 0 01.357.07.471.471 0 01.205.19.808.808 0 01.094.3 2.672 2.672 0 01.024.38.912.912 0 00-.364-.15 2.092 2.092 0 00-.384-.04 1.649 1.649 0 00-.448.063.986.986 0 00-.36.18.856.856 0 00-.236.3.92.92 0 00-.088.4.891.891 0 00.252.676.929.929 0 00.666.239 1.137 1.137 0 00.96-.429v.383h.5v-1.827a1.382 1.382 0 00-.256-.9 1.091 1.091 0 00-.892-.316 2.033 2.033 0 00-.538.078zm.889 2.4a.8.8 0 01-.475.126.587.587 0 01-.4-.126.439.439 0 01-.142-.34.412.412 0 01.054-.216.492.492 0 01.145-.153.64.64 0 01.205-.09.933.933 0 01.236-.03 1.122 1.122 0 01.673.2v.376a1.53 1.53 0 01-.3.256zm5.493-3.452a.818.818 0 00.3-.256l-.29-.416a.583.583 0 01-.252.206 1.6 1.6 0 01-.31.086l-.1.018-.283.049a2.089 2.089 0 00-.471.146 1.493 1.493 0 00-.576.419 1.969 1.969 0 00-.337.6 3.117 3.117 0 00-.158.689 6.117 6.117 0 00-.04.689 2.5 2.5 0 00.111.769 1.609 1.609 0 00.316.579 1.386 1.386 0 00.5.366 1.61 1.61 0 00.66.13 1.583 1.583 0 00.623-.123 1.5 1.5 0 00.485-.329 1.481 1.481 0 00.316-.483 1.5 1.5 0 00.114-.586 1.8 1.8 0 00-.1-.606 1.308 1.308 0 00-.276-.462 1.229 1.229 0 00-.441-.3 1.531 1.531 0 00-.579-.106 1.407 1.407 0 00-.374.05 1.442 1.442 0 00-.337.143 1.28 1.28 0 00-.279.216.979.979 0 00-.2.283h-.014a3.228 3.228 0 01.057-.419 2.059 2.059 0 01.132-.41 1.428 1.428 0 01.222-.353 1.008 1.008 0 01.35-.25 1.858 1.858 0 01.461-.15l.106-.019c.105-.019.206-.038.3-.058a1.631 1.631 0 00.354-.11zm-1.871 2.843a1.659 1.659 0 01-.074-.519.836.836 0 01.119-.281.992.992 0 01.219-.24 1.109 1.109 0 01.693-.236.891.891 0 01.714.286 1.146 1.146 0 01.172 1.115.944.944 0 01-.512.529.98.98 0 01-.4.08.922.922 0 01-.407-.09.936.936 0 01-.32-.25 1.252 1.252 0 01-.205-.393zm6.56-1.8h-.532v2.962h.532zm-3.312 0h.532v.889h.492a1.645 1.645 0 01.572.086.979.979 0 01.364.226.791.791 0 01.192.326 1.325 1.325 0 01.057.383 1.167 1.167 0 01-.064.386.875.875 0 01-.206.336.988.988 0 01-.384.24 1.706 1.706 0 01-.592.093h-.966V55.8zm.532 1.384v1.085h.387a.867.867 0 00.562-.14.5.5 0 00.162-.4.515.515 0 00-.165-.41.863.863 0 00-.552-.14h-.394z" fill-rule="evenodd"/><path d="M127.374 58.335a1.2 1.2 0 01-.5.37 1.714 1.714 0 01-.653.126 1.852 1.852 0 01-.653-.11 1.445 1.445 0 01-.5-.313 1.422 1.422 0 01-.33-.49 1.677 1.677 0 01-.118-.636 1.575 1.575 0 01.114-.606 1.432 1.432 0 01.316-.49 1.547 1.547 0 01.478-.329 1.453 1.453 0 01.609-.123 2.343 2.343 0 01.663.09 1.205 1.205 0 01.515.3l-.246.416a1.154 1.154 0 00-.411-.24 1.445 1.445 0 00-.448-.07 1.044 1.044 0 00-.717.29 1.008 1.008 0 00-.226.333 1.144 1.144 0 000 .868 1.019 1.019 0 00.232.333.95.95 0 00.343.21 1.243 1.243 0 00.418.073 1.1 1.1 0 00.488-.107 1.22 1.22 0 00.37-.276zm.272-2.536h2.73v.526h-1.1v2.436h-.532v-2.436h-1.1V55.8z"/><path d="M131.487 55.8h-.532v4.28h.532v-1.455a1.164 1.164 0 00.384.153 2.108 2.108 0 00.461.05 1.651 1.651 0 00.64-.123 1.53 1.53 0 00.491-.336 1.46 1.46 0 00.316-.506 1.767 1.767 0 00.111-.629 1.83 1.83 0 00-.1-.606 1.41 1.41 0 00-.276-.472 1.2 1.2 0 00-.434-.31 1.4 1.4 0 00-.576-.113 1.465 1.465 0 00-.589.12 1.138 1.138 0 00-.431.3zm.37.549a1.044 1.044 0 01.495-.12 1.11 1.11 0 01.418.073.833.833 0 01.306.213.883.883 0 01.188.326 1.255 1.255 0 01.064.413 1.3 1.3 0 01-.074.436.96.96 0 01-.206.34.944.944 0 01-.326.223 1.074 1.074 0 01-.434.083 1.611 1.611 0 01-.407-.05 1.331 1.331 0 01-.394-.18v-1.469a1.213 1.213 0 01.37-.289zm6.112-.55h-.528v2.962h.532zm-3.316 0h.532v.889h.491a1.646 1.646 0 01.572.086.979.979 0 01.364.226.786.786 0 01.192.326 1.312 1.312 0 01.057.383 1.167 1.167 0 01-.064.386.875.875 0 01-.206.336.988.988 0 01-.384.24 1.706 1.706 0 01-.592.093h-.964V55.8zm.536 1.384v1.085h.387a.867.867 0 00.562-.14.5.5 0 00.162-.4.515.515 0 00-.165-.41.863.863 0 00-.552-.14h-.394z" fill-rule="evenodd"/><path d="M140.522 57.227l1.138 1.534h-.653l-.879-1.2-.892 1.2h-.619l1.131-1.508-1.064-1.453h.657l.811 1.118.824-1.118h.62zm-46.727 5.2h-1.632v2.47h-.532V61.93h2.7v2.962h-.532zm3.546.028h-1.05l-.034.5a6.011 6.011 0 01-.158 1.022 1.876 1.876 0 01-.259.6.743.743 0 01-.354.283 1.224 1.224 0 01-.434.073l-.04-.513a.432.432 0 00.2-.043.554.554 0 00.219-.216 1.871 1.871 0 00.192-.48 4.152 4.152 0 00.114-.826l.054-.922h2.084V64.9h-.534v-2.44z"/><path d="M99.312 61.937a1.666 1.666 0 00-.458.2l.142.42a3.382 3.382 0 01.363-.153 1.4 1.4 0 01.461-.063.782.782 0 01.357.07.472.472 0 01.206.19.819.819 0 01.094.3 2.68 2.68 0 01.024.38.911.911 0 00-.364-.15 2.088 2.088 0 00-.384-.04 1.631 1.631 0 00-.448.063.985.985 0 00-.36.18.856.856 0 00-.236.3.92.92 0 00-.087.4.888.888 0 00.252.676.928.928 0 00.666.24 1.137 1.137 0 00.959-.43v.383h.5v-1.828a1.381 1.381 0 00-.256-.9 1.089 1.089 0 00-.892-.316 2.04 2.04 0 00-.538.073zm.892 2.4a.8.8 0 01-.474.127.579.579 0 01-.4-.127.438.438 0 01-.143-.337.412.412 0 01.054-.216.487.487 0 01.145-.153.635.635 0 01.205-.09.932.932 0 01.236-.03 1.126 1.126 0 01.673.2v.376a1.532 1.532 0 01-.3.256z" fill-rule="evenodd"/><path d="M101.519 61.93h2.73v.526h-1.1v2.436h-.532v-2.436h-1.1v-.526z"/><path d="M106.734 64.862a1.385 1.385 0 00.522-.293l-.162-.413a1.244 1.244 0 01-.387.22 1.493 1.493 0 01-.532.09 1.113 1.113 0 01-.727-.233.9.9 0 01-.32-.656h2.3a1.621 1.621 0 00.034-.356 1.341 1.341 0 00-.111-.552 1.284 1.284 0 00-.74-.706 1.478 1.478 0 00-.542-.1 1.7 1.7 0 00-.66.123 1.447 1.447 0 00-.482.33 1.4 1.4 0 00-.3.489 1.718 1.718 0 00-.1.606 1.743 1.743 0 00.114.636 1.406 1.406 0 00.323.489 1.388 1.388 0 00.505.313 1.906 1.906 0 00.663.11 2.019 2.019 0 00.6-.1zm-1.35-2.283a.941.941 0 01.66-.223.892.892 0 01.62.21.814.814 0 01.246.579h-1.819a.9.9 0 01.293-.566zm2.339-.649h.673l1.026 1.428-1.1 1.534h-.653l1.151-1.534-1.1-1.428zm1.831 0h.532v2.962h-.532zm2.434 2.962l-1.171-1.534 1.094-1.428h-.66l-1.033 1.428 1.111 1.534zm2.43-.03a1.385 1.385 0 00.522-.293l-.162-.413a1.246 1.246 0 01-.387.22 1.5 1.5 0 01-.532.09 1.113 1.113 0 01-.727-.233.9.9 0 01-.32-.656h2.3a1.6 1.6 0 00.034-.356 1.335 1.335 0 00-.111-.552 1.281 1.281 0 00-.74-.706 1.477 1.477 0 00-.542-.1 1.7 1.7 0 00-.66.123 1.45 1.45 0 00-.481.33 1.386 1.386 0 00-.3.489 1.709 1.709 0 00-.1.606 1.743 1.743 0 00.114.636 1.4 1.4 0 00.323.489 1.386 1.386 0 00.5.313 1.909 1.909 0 00.663.11 2.016 2.016 0 00.6-.1zm-1.35-2.283a.943.943 0 01.66-.223.9.9 0 01.619.21.811.811 0 01.246.579h-1.817a.9.9 0 01.293-.566zm4.238-1.644c-.313 0-.485-.173-.512-.519h-.5a1 1 0 00.067.366.788.788 0 00.192.29.981.981 0 00.316.193 1.16 1.16 0 00.434.073 1.056 1.056 0 00.408-.073.966.966 0 00.31-.193.84.84 0 00.2-.29.934.934 0 00.071-.366h-.5c-.024.345-.189.519-.485.519zm-1.438.995v2.962h.532l1.73-2.207v2.207h.532v-2.963h-.531l-1.73 2.207v-2.207z" fill-rule="evenodd"/></g><g data-name="Сгруппировать 1755" opacity=".25"><path d="M131.007 38.7v11.737h-4.19V42.2h-4.035v8.232h-4.191V38.7h12.416z"/><path d="M109.985 50.856c3.751 0 6.537-2.3 6.537-5.787 0-3.375-2.055-5.566-5.49-5.566a5.389 5.389 0 00-3.878 1.521 3.873 3.873 0 013.771-3.443l3.647-.007 1.82-3.484s-4.042.092-5.92.092c-4.293.075-7.192 3.977-7.192 8.716-.001 5.522 2.827 7.958 6.705 7.958zm.023-8.267a2.26 2.26 0 012.358 2.48 2.386 2.386 0 11-4.759.024 2.289 2.289 0 012.401-2.504z" fill-rule="evenodd"/><path d="M99.868 46.508a6.289 6.289 0 01-2.468.678 2.918 2.918 0 01-3.213-2.93 2.865 2.865 0 013.17-2.926 7.1 7.1 0 012.613.78s1.089-2 1.653-3a6.551 6.551 0 00-4.008-1.21c-4.038 0-7.166 2.633-7.166 6.332 0 3.746 2.94 6.318 7.166 6.24a8.5 8.5 0 003.8-1.1z"/></g></g></g></svg>