<svg xmlns="http://www.w3.org/2000/svg" width="120" height="28"><defs><clipPath id="a"><path data-name="Прямоугольник 3195" transform="translate(20 30.25)" fill="#fff" d="M0 0h120v28H0z"/></clipPath></defs><g data-name="Группа масок 201" transform="translate(-20 -30.25)" clip-path="url(#a)" fill="#fff"><path d="M61.149 30.25a14.286 14.286 0 016.223 1.422c.3.134.6.295.892.455l-1.3 1.15-1.946-2.006-3.354 2.941-1.976-2.117-6.168 5.483 3.949 4.306-1.542 1.337 3.9 4.306-1.545 1.337 5.573 6.125 3.3-3 2.869 3.21a16.091 16.091 0 01-1.867 1.235 14.265 14.265 0 01-6.98 1.817A14.108 14.108 0 0147 44.234 14.08 14.08 0 0161.149 30.25zm-2.6 13.131l3.382-3 3.032 3.353-3.383 3zm2.408 5.777l3.356-3.024 3.057 3.343-3.382 3zm-4.812-11.472l3.376-3 3.03 3.348-3.382 3zm6.194-1.61l2.52-2.242 2.273 2.488-2.516 2.273zm4.487 10.3l2.52-2.242 2.273 2.513-2.519 2.245zm2.218 5.056l2.516-2.247 2.271 2.488-2.515 2.273zm1.029-11.558l1.677-1.5 1.515 1.66-1.677 1.5zm-2.165-4.947l1.677-1.524 1.515 1.684-1.678 1.5zm4.3 9.9l1.677-1.5 1.546 1.662-1.7 1.5zm-7.552-3.718l2.516-2.247 2.272 2.487-2.514 2.243z" opacity=".25"/><text transform="translate(82 50)" font-size="18" font-family="ProximaNova-Semibold, Proxima Nova" font-weight="600" opacity=".5"><tspan x="0" y="0">WM</tspan></text></g></svg>