<svg xmlns="http://www.w3.org/2000/svg" width="120" height="28"><defs><clipPath id="a"><path data-name="Прямоугольник 3195" transform="translate(20 30)" fill="#fff" d="M0 0h120v28H0z"/></clipPath></defs><g data-name="Группа масок 181" transform="translate(-20 -30)" opacity=".25" clip-path="url(#a)"><g fill="#fff"><path data-name="Контур 12581" d="M58.852 30a14 14 0 1014 14 14 14 0 00-14-14zm4.835 22.465h-2.806V37.843c-.647.014-1.279.014-1.926.028a3.017 3.017 0 00-.745.084 2.815 2.815 0 00-.717.281 3.177 3.177 0 00-1.56 1.785 3.223 3.223 0 00-.112.9 4.22 4.22 0 00.422 2.024 4.406 4.406 0 00.914 1.124 8.683 8.683 0 001.518 1.223c.141.1.281.183.436.3.267.183.576.365.914.562l-1.378 2.066-2.859 4.245h-3.191l3.823-5.707c-.323-.239-.689-.52-1.068-.843a6.62 6.62 0 01-1.124-1.139 5.968 5.968 0 01-.8-1.448 6.43 6.43 0 01-.408-2.249 5.3 5.3 0 01.183-1.7 4.375 4.375 0 01.422-1.012 4.7 4.7 0 011.532-1.588 8.225 8.225 0 014.5-1.195 11.63 11.63 0 011.223 0h2.811z"/><g data-name="Сгруппировать 1729"><path data-name="Контур 12582" d="M85.587 35.608h-2.361v-.028h-2.952v16.885h2.952v-6.047h2.361a5.405 5.405 0 000-10.809zm0 8.532a3.456 3.456 0 01-.394.028h-1.968v-6.325h1.968a3.456 3.456 0 01.394.028 3.232 3.232 0 010 6.269z"/><path data-name="Контур 12583" d="M97.704 35.565h-2.488l-4.4 16.9h2.488l.956-3.655h5.088l.914 3.655h3.078L99.081 35.58h-1.378zm-2.839 10.88l1.968-7.576 1.912 7.576z"/><path data-name="Контур 12584" d="M112.322 35.565l-3.359 6.733-3.388-6.733h-3.194l4.934 9.811v7.089h2.882V45.49l.183-.365 4.765-9.558z"/></g></g></g></svg>