<svg xmlns="http://www.w3.org/2000/svg" width="120" height="28"><defs><clipPath id="a"><path data-name="Прямоугольник 4045" transform="translate(20 30)" fill="#fff" d="M0 0h120v28H0z"/></clipPath></defs><g data-name="Группа масок 182" transform="translate(-20 -30)" opacity=".95" clip-path="url(#a)"><path d="M58.364 33.61a4.189 4.189 0 01-3.357 1.59 4.75 4.75 0 011.2-3.477A5.007 5.007 0 0159.536 30a5.058 5.058 0 01-1.172 3.61m1.159 1.838c-1.852-.106-3.437 1.052-4.316 1.052s-2.238-1-3.7-.972a5.471 5.471 0 00-4.652 2.824c-2 3.437-.52 8.525 1.412 11.323.946 1.385 2.078 2.9 3.57 2.851 1.412-.053 1.971-.919 3.676-.919s2.211.919 3.7.892c1.545-.027 2.518-1.385 3.463-2.771a12.15 12.15 0 001.545-3.184 5.019 5.019 0 01-3.01-4.569 5.125 5.125 0 012.438-4.289 5.279 5.279 0 00-4.129-2.238m10.7-3.863v20.767h3.224v-7.1h4.462a6.591 6.591 0 006.94-6.847 6.514 6.514 0 00-6.833-6.82H70.22zm3.223 2.715h3.716c2.8 0 4.4 1.492 4.4 4.116s-1.6 4.129-4.409 4.129h-3.7zm17.29 18.209a5.333 5.333 0 004.755-2.651h.067v2.491h2.984V42.015c0-3-2.4-4.929-6.088-4.929-3.423 0-5.954 1.958-6.048 4.649h2.9a2.83 2.83 0 013.05-2.118c1.971 0 3.077.919 3.077 2.611v1.146l-4.023.24c-3.743.226-5.768 1.758-5.768 4.422.006 2.691 2.097 4.476 5.094 4.476zm.866-2.464c-1.718 0-2.811-.826-2.811-2.091 0-1.305 1.052-2.065 3.064-2.185l3.583-.226v1.172c0 1.947-1.651 3.333-3.839 3.333zM102.522 58c3.144 0 4.622-1.2 5.914-4.835l5.66-15.879h-3.275l-3.8 12.268h-.067l-3.8-12.268h-3.358l5.461 15.119-.293.919a2.563 2.563 0 01-2.717 2.158c-.253 0-.746-.027-.946-.053v2.491a8.879 8.879 0 001.221.08z" fill="#fff"/></g></svg>