<svg xmlns="http://www.w3.org/2000/svg" width="120" height="23.211"><g fill="#fff" fill-rule="evenodd"><path data-name="Контур 12572" d="M48.832 15.264V13.4h6.54v-2.157h-6.54V9.686c0-.157 0-.28.191-.28h6.506V7.16h-7.605c-.908 0-1.5.635-1.5 1.727v7.154c0 1.092.587 1.727 1.5 1.727h7.735v-2.246h-6.656c-.171 0-.191-.089-.191-.246z"/><path data-name="Контур 12573" d="M67.069 9.393V7.147h-7.6c-.908 0-1.5.635-1.5 1.727v8.875h2.464V9.673c0-.137 0-.28.177-.28z"/><path data-name="Контур 12574" d="M89.185 5.495h-6.561c-3.263.253-4.553 2.007-4.553 5.42s1.365 5.154 4.553 5.461h2.034v1.365h2.478v-1.365h2.048c3.195-.28 4.553-2.048 4.553-5.461s-1.235-5.167-4.552-5.42zm-4.526 8.677h-1.167a5.619 5.619 0 01-.867-.061c-1.57-.253-2.048-1.3-2.048-3.154s.457-2.949 2.048-3.209a6.063 6.063 0 01.908-.061h1.126v6.485zm4.526-.061a5.586 5.586 0 01-.874.061h-1.174V7.687h1.132a5.97 5.97 0 01.915.061c1.6.259 2.048 1.29 2.048 3.209s-.471 2.9-2.048 3.154z"/><path data-name="Контур 12575" d="M41.569 5.208c-1.195 0-1.966.683-2.54 2.007l-3.338 7.98-3.413-7.98a2.662 2.662 0 00-2.533-2.007c-1.365 0-2.287.833-2.287 2.656v9.872h2.574V8.178l3.413 8.021a2.251 2.251 0 004.369 0l3.413-8.1v9.605h2.567V7.867c0-1.823-.874-2.656-2.287-2.656z"/><path data-name="Контур 12576" d="M102.183 6.997h-.9c-3.878 0-5.42 1.734-5.42 5.461s1.57 5.461 5.461 5.461h.846c3.844 0 5.461-1.823 5.461-5.461s-1.5-5.461-5.42-5.461zm0 8.7h-.9c-2.212 0-2.929-1.058-2.929-3.236s.621-3.263 2.97-3.263h.819c2.348 0 2.956 1.058 2.956 3.263s-.684 3.24-2.916 3.24z"/><path data-name="Контур 12577" d="M71.669 6.881a2.137 2.137 0 00-2.048 1.44l-3.345 7.509-.846 1.9h2.731l.963-2.287h5.223l1 2.287h2.649l-4.192-9.353a2.225 2.225 0 00-2.048-1.5zm-1.8 6.444l1.591-3.789c.1-.225.307-.218.389 0l1.6 3.789z"/><path data-name="Контур 12578" d="M117.536 7.148v4.014h-5.416V7.148h-2.458v10.588h2.458v-4.287h5.414v4.287h2.464V7.148z"/><path data-name="Контур 12579" d="M11.633 0a11.605 11.605 0 00-2.048 23.033v-10.24a.867.867 0 01.867-.874h1.517a.082.082 0 00.082-.082V.013h-.43zM9.401 9.988a1.365 1.365 0 111.365-1.365A1.365 1.365 0 019.4 9.987z"/><path data-name="Контур 12580" d="M13.442.143v12.288a.874.874 0 01-.874.874h-1.543a.082.082 0 00-.082.082v9.821h.683A11.606 11.606 0 0013.435.127zm-.075 17.429a1.222 1.222 0 111.222-1.222 1.222 1.222 0 01-1.22 1.222zm3.236 0a1.222 1.222 0 111.222-1.222 1.222 1.222 0 01-1.222 1.222zm3.236 0a1.222 1.222 0 111.222-1.222 1.222 1.222 0 01-1.222 1.222z"/></g></svg>