<svg xmlns="http://www.w3.org/2000/svg" width="120" height="28"><defs><clipPath id="a"><path data-name="Прямоугольник 4051" transform="translate(20 30.25)" fill="#fff" d="M0 0h120v28H0z"/></clipPath></defs><g data-name="Группа масок 186" transform="translate(-20 -30.25)" clip-path="url(#a)"><path data-name="Контур 12597" d="M65.543 36.512h-6.346a.882.882 0 00-.871.744L55.76 53.527a.528.528 0 00.523.611h3.029a.882.882 0 00.871-.745l.692-4.389a.881.881 0 01.87-.745h2.009c4.18 0 6.592-2.023 7.222-6.031a4.887 4.887 0 00-.809-4.1c-.9-1.056-2.5-1.616-4.624-1.616zm.732 5.943c-.347 2.277-2.087 2.277-3.769 2.277h-.958l.672-4.252a.529.529 0 01.522-.446h.439c1.146 0 2.227 0 2.785.653a2.115 2.115 0 01.309 1.763z" fill="#253b80"/><path data-name="Контур 12598" d="M84.51 42.381h-3.043a.529.529 0 00-.522.446l-.135.85-.212-.308c-.658-.955-2.125-1.274-3.589-1.274a6.988 6.988 0 00-6.784 6.111 5.735 5.735 0 001.132 4.668 4.754 4.754 0 003.827 1.546 5.814 5.814 0 004.206-1.74l-.135.844a.529.529 0 00.521.612h2.741a.882.882 0 00.871-.745l1.642-10.4a.527.527 0 00-.52-.61zm-4.236 5.914a3.387 3.387 0 01-3.428 2.9 2.354 2.354 0 01-2.517-2.954 3.4 3.4 0 013.405-2.925 2.563 2.563 0 012.026.828 2.63 2.63 0 01.515 2.151z" fill="#253b80"/><path data-name="Контур 12599" d="M100.694 42.381H97.64a.885.885 0 00-.73.387l-4.211 6.2-1.786-5.958a.884.884 0 00-.846-.629h-3a.529.529 0 00-.5.7l3.363 9.87-3.163 4.464a.529.529 0 00.43.835h3.05a.88.88 0 00.725-.379l10.156-14.66a.529.529 0 00-.434-.83z" fill="#253b80"/><path data-name="Контур 12600" d="M110.803 36.512h-6.346a.881.881 0 00-.87.744l-2.567 16.271a.528.528 0 00.521.611h3.257a.617.617 0 00.609-.521l.728-4.612a.881.881 0 01.87-.745h2.008c4.181 0 6.592-2.023 7.223-6.031a4.884 4.884 0 00-.81-4.1c-.9-1.057-2.499-1.617-4.623-1.617zm.732 5.943c-.346 2.277-2.086 2.277-3.769 2.277h-.957l.673-4.252a.527.527 0 01.521-.446h.439c1.145 0 2.227 0 2.785.653a2.115 2.115 0 01.308 1.763z" fill="#179bd7"/><path data-name="Контур 12601" d="M129.767 42.381h-3.037a.526.526 0 00-.521.446l-.135.85-.213-.308c-.658-.955-2.124-1.274-3.588-1.274a6.987 6.987 0 00-6.783 6.111 5.739 5.739 0 001.131 4.668 4.757 4.757 0 003.827 1.546 5.814 5.814 0 004.206-1.74l-.135.844a.529.529 0 00.523.612h2.736a.881.881 0 00.87-.745l1.643-10.4a.53.53 0 00-.524-.61zm-4.236 5.914a3.385 3.385 0 01-3.428 2.9 2.354 2.354 0 01-2.517-2.954 3.4 3.4 0 013.405-2.925 2.563 2.563 0 012.026.828 2.617 2.617 0 01.517 2.151z" fill="#179bd7"/><path data-name="Контур 12602" d="M133.352 36.958l-2.6 16.569a.528.528 0 00.521.611h2.618a.88.88 0 00.871-.745l2.568-16.27a.529.529 0 00-.521-.611h-2.932a.53.53 0 00-.525.446z" fill="#179bd7"/><path data-name="Контур 12603" d="M29.409 57.3l.485-3.082-1.081-.025h-5.162l3.587-22.743a.3.3 0 01.1-.178.293.293 0 01.192-.072h8.7c2.889 0 4.883.6 5.924 1.788a4.076 4.076 0 01.949 1.779 6.421 6.421 0 01.006 2.453l-.011.071v.627l.488.276a3.423 3.423 0 01.988.753 3.508 3.508 0 01.8 1.8 7.606 7.606 0 01-.114 2.609 9.188 9.188 0 01-1.069 2.953 6.074 6.074 0 01-1.693 1.856 6.87 6.87 0 01-2.281 1.029 11.373 11.373 0 01-2.85.329h-.677a2.037 2.037 0 00-2.014 1.719l-.051.277-.853 5.431-.039.2a.172.172 0 01-.054.116.143.143 0 01-.089.032h-4.181z" fill="#253b80"/><path data-name="Контур 12604" d="M44.052 37.364q-.039.249-.089.51c-1.148 5.893-5.074 7.928-10.089 7.928H31.32a1.24 1.24 0 00-1.226 1.048l-1.307 8.294-.37 2.35a.653.653 0 00.645.756h4.529a1.09 1.09 0 001.076-.919l.045-.23.853-5.411.055-.3a1.089 1.089 0 011.076-.92h.677c4.388 0 7.823-1.781 8.826-6.936.419-2.153.2-3.952-.907-5.216a4.33 4.33 0 00-1.24-.954z" fill="#179bd7"/><path data-name="Контур 12605" d="M42.851 36.885q-.263-.077-.542-.139t-.574-.109a14.181 14.181 0 00-2.251-.164h-6.817a1.088 1.088 0 00-1.075.92l-1.456 9.191-.042.268a1.24 1.24 0 011.226-1.05h2.553c5.015 0 8.941-2.037 10.089-7.928.034-.174.063-.344.089-.51a6.118 6.118 0 00-.944-.4l-.256-.079z" fill="#222d65"/><path data-name="Контур 12606" d="M31.587 37.393a1.088 1.088 0 011.08-.919h6.821a14.181 14.181 0 012.251.164q.3.047.574.109t.542.139l.258.08a6.21 6.21 0 01.944.4 5.565 5.565 0 00-1.18-5c-1.303-1.483-3.645-2.116-6.643-2.116h-8.7a1.244 1.244 0 00-1.233 1.051l-3.625 22.978a.748.748 0 00.738.865h5.373l1.349-8.559z" fill="#253b80"/></g></svg>